inDegrees=yes
name=ik_S47_A07_T02
DataType=double
version=3
OpenSimVersion=4.3-2021-08-27-4bc7ad9
endheader
time	pelvis_tilt	pelvis_list	pelvis_rotation	pelvis_tx	pelvis_ty	pelvis_tz	hip_flexion_r	hip_adduction_r	hip_rotation_r	knee_angle_r	knee_angle_r_beta	ankle_angle_r	subtalar_angle_r	mtp_angle_r	hip_flexion_l	hip_adduction_l	hip_rotation_l	knee_angle_l	knee_angle_l_beta	ankle_angle_l	subtalar_angle_l	mtp_angle_l	lumbar_extension	lumbar_bending	lumbar_rotation	arm_flex_r	arm_add_r	arm_rot_r	elbow_flex_r	pro_sup_r	wrist_flex_r	wrist_dev_r	arm_flex_l	arm_add_l	arm_rot_l	elbow_flex_l	pro_sup_l	wrist_flex_l	wrist_dev_l
5.759999999999965	-15.26555632586923	-6.453648590559466	27.0209834146407	0	0.9399999999999999	0	37.29333943596101	-11.47369314885409	-10.17481526324936	51.2357351185948	0.8942322724991666	0	0	0	37.29333943596101	-11.47369314885409	-10.17481526324936	51.2357351185948	0.8942322724991666	0	0	0	-15.29092787855798	-2.021901945121755	1.481698708223849	83.26858560937804	10.28390220641057	27.57872640833754	37.02601848828188	65.57486164271516	0	0	42.27623046117423	-2.915242274550184	17.25824221929756	34.90475069616014	91.22592874808961	0	0
5.779999999999965	-15.29285057834998	-6.498863516022746	27.10870444931153	0	0.9399999999999999	0	37.29691858050548	-11.47132040206414	-10.17463505700736	51.23689525757619	0.8942525207441725	0	0	0	37.29691858050548	-11.47132040206414	-10.17463505700736	51.23689525757619	0.8942525207441725	0	0	0	-15.34073091314695	-2.033303483038169	1.432340107400538	83.32648786855577	10.59177395957102	28.05371569586997	36.29995122652285	65.10970201286871	0	0	42.29269934031947	-2.957634583326225	17.23550694070962	34.99260165110874	91.24049496163728	0	0
5.799999999999964	-15.31240891913442	-6.503921563110473	27.13730421082852	0	0.9399999999999999	0	37.2986447542181	-11.47019632246053	-10.17454913656425	51.23746385630592	0.8942624446641291	0	0	0	37.2986447542181	-11.47019632246053	-10.17454913656425	51.23746385630592	0.8942624446641291	0	0	0	-15.36011061351605	-2.028616274073943	1.435109711701357	83.30307496253295	10.58878474339107	28.13144858080467	35.80056777885667	65.23557807501308	0	0	42.25346161247553	-2.947025753808961	17.23703066225325	35.07933049859518	91.24216769216353	0	0
5.819999999999964	-15.34882916880603	-6.54488795596072	27.18018781936233	0	0.9399999999999999	0	37.30209888853695	-11.46791744017328	-10.1743757229926	51.23858715263084	0.8942820498834745	0	0	0	37.30209888853695	-11.46791744017328	-10.1743757229926	51.23858715263084	0.8942820498834745	0	0	0	-15.41497905123345	-2.035111012377683	1.39689251937589	83.33398606710426	10.73242405455475	28.35648001879093	35.37602914682015	65.69103195141565	0	0	42.28365438613141	-3.027117961171321	17.2637586468917	35.20544558228725	91.21575724238399	0	0
5.839999999999963	-15.38895871118346	-6.565636034621246	27.17218756041745	0	0.9399999999999999	0	37.30991261580542	-11.46321297941049	-10.174002304928	51.24116471730365	0.8943270368736982	0	0	0	37.30991261580542	-11.46321297941049	-10.174002304928	51.24116471730365	0.8943270368736982	0	0	0	-15.46133032200887	-2.031979313664942	1.396881040869201	83.42224444698739	10.72145396877947	28.36841893353635	35.41189849295341	65.68327897806586	0	0	42.28845947513826	-3.045498523608432	17.28873312899881	35.25708200804576	91.20151314642986	0	0
5.859999999999963	-15.4320403070448	-6.590379180024125	27.19772256806892	0	0.9399999999999999	0	37.31223940906477	-11.4616895543422	-10.17388601988413	51.241925197852	0.8943403097631641	0	0	0	37.31223940906477	-11.4616895543422	-10.17388601988413	51.241925197852	0.8943403097631641	0	0	0	-15.51476658212786	-2.020619022879202	1.359465758753324	83.36207130022325	10.82129954850291	28.7640757464244	35.24401493893991	65.98778755737791	0	0	42.33246632771905	-3.065865985726537	17.34416798923384	35.34845919665856	91.20681530171233	0	0
5.879999999999963	-15.45514713202669	-6.595022297961693	27.20524557982381	0	0.9399999999999999	0	37.31449376704914	-11.46022119191721	-10.1737737274989	51.24266540004906	0.8943532287286333	0	0	0	37.31449376704914	-11.46022119191721	-10.1737737274989	51.24266540004906	0.8943532287286333	0	0	0	-15.54000889505799	-2.004428743428031	1.333375361275261	83.30986196111277	10.88522999666141	29.06737163945991	35.05129479329451	66.43659025982814	0	0	42.29450597695207	-3.095957246768565	17.37651833149756	35.41230876911569	91.14210715161556	0	0
5.899999999999962	-15.45753184289932	-6.591875382401316	27.17739620630961	0	0.9399999999999999	0	37.31696500377679	-11.45861491156185	-10.17365078646135	51.24347801052276	0.8943674114569355	0	0	0	37.31696500377679	-11.45861491156185	-10.17365078646135	51.24347801052276	0.8943674114569355	0	0	0	-15.54142752807809	-1.996857838673407	1.324175342770018	83.19477873185049	10.91032055596327	29.28388095579819	35.02533903252259	66.72337509183329	0	0	42.27031583579464	-3.138377280268636	17.40432613823444	35.45743629216346	91.14135638981803	0	0
5.919999999999962	-15.45145973664355	-6.597118708487898	27.15125139362905	0	0.9399999999999999	0	37.34083487623811	-11.44808493217673	-10.17266449657204	51.25167130777655	0.8945104114706088	0	0	0	37.34083487623811	-11.44808493217673	-10.17266449657204	51.25167130777655	0.8945104114706088	0	0	0	-15.54036509948051	-1.998496610277936	1.326779831957766	83.16613728368995	10.92087975852785	29.36226763731956	35.04846713571177	66.86609645652813	0	0	42.24917517528998	-3.169954928407189	17.45234077725336	35.49823461849517	91.1477999937662	0	0
5.939999999999961	-15.45000733410888	-6.572604721011426	27.04476373033804	0	0.9399999999999999	0	37.34245764442939	-11.44704004354323	-10.17258423514245	51.25220768682659	0.8945197730510707	0	0	0	37.34245764442939	-11.44704004354323	-10.17258423514245	51.25220768682659	0.8945197730510707	0	0	0	-15.53152647643612	-1.967314072228381	1.300277491938268	83.16420426088881	11.05752065214443	29.45243227017064	34.94678413879085	67.1806375289603	0	0	42.24823719114411	-3.212695063976482	17.33138117267947	35.44849729514851	91.14354546570324	0	0
5.959999999999961	-15.43111073902939	-6.569389573291574	27.02117989511162	0	0.9399999999999999	0	37.33792243595308	-11.44894809757085	-10.17276896905793	51.25065516454524	0.8944926764255507	0	0	0	37.33792243595308	-11.44894809757085	-10.17276896905793	51.25065516454524	0.8944926764255507	0	0	0	-15.513121579688	-1.973095517428313	1.294178808859454	83.22805880925021	11.11083678641464	29.45596177002752	34.90317676363033	67.16851780316114	0	0	42.22381939744544	-3.216608216930234	17.36074334964386	35.41147549510546	91.16714381846711	0	0
5.97999999999996	-15.41837741988179	-6.577526921685665	26.96615853108989	0	0.9399999999999999	0	37.34026851302562	-11.44741480706148	-10.17265178651438	51.25141962945811	0.8945060188552961	0	0	0	37.34026851302562	-11.44741480706148	-10.17265178651438	51.25141962945811	0.8945060188552961	0	0	0	-15.50759249321471	-1.979355545556545	1.272827168573707	83.33508479076004	11.18678235680978	29.4652950676439	34.74735098053795	67.31105108687423	0	0	42.24384144653184	-3.265683582400356	17.35396831466958	35.38754182824933	91.19570378868799	0	0
5.99999999999996	-15.42076289088622	-6.570816040304381	26.91961206176999	0	0.9399999999999999	0	37.34267543490505	-11.44584972501196	-10.17253194657632	51.2522072060095	0.8945197646592294	0	0	0	37.34267543490505	-11.44584972501196	-10.17253194657632	51.2522072060095	0.8945197646592294	0	0	0	-15.50572492530646	-1.976627753531068	1.287577645453105	83.47900864703959	11.20267784481118	29.43012581528493	34.81107989554139	67.815498866873	0	0	42.26560701163486	-3.269197237678469	17.40097754792066	35.35504315700176	91.19749478432799	0	0
6.01999999999996	-15.41851843186732	-6.572512425486585	26.88104987696934	0	0.9399999999999999	0	37.34511440784355	-11.44426152888151	-10.17241038111529	51.253003650494	0.8945336652377933	0	0	0	37.34511440784355	-11.44426152888151	-10.17241038111529	51.253003650494	0.8945336652377933	0	0	0	-15.50269495789296	-1.985948948554369	1.308474436646465	83.65106667792209	11.12353148825842	29.30233255649705	35.179318900807	68.16787798050267	0	0	42.28093330291166	-3.289586184598404	17.44730171763745	35.34971747536566	91.21638823200654	0	0
6.039999999999959	-15.43127917490234	-6.576076662056578	26.81466638348011	0	0.9399999999999999	0	37.3473544957825	-11.44281282188043	-10.17229921218074	51.25373944432027	0.8945465072626777	0	0	0	37.3473544957825	-11.44281282188043	-10.17229921218074	51.25373944432027	0.8945465072626777	0	0	0	-15.5106115580783	-2.002665658371127	1.369723583715901	83.83125717911787	11.00146144488792	28.93944582849544	35.97048524451414	68.94077358119875	0	0	42.31843255136235	-3.271133602524185	17.50760956910932	35.35263731342983	91.24244832288316	0	0
6.059999999999959	-15.4213679827234	-6.561035089754849	26.75005320279533	0	0.9399999999999999	0	37.35010947479496	-11.44103318445321	-10.17216257942781	51.25464488913681	0.8945623102559214	0	0	0	37.35010947479496	-11.44103318445321	-10.17216257942781	51.25464488913681	0.8945623102559214	0	0	0	-15.49049023124642	-2.013062635136568	1.431029254691463	83.94447423343787	10.95574853803623	28.35152843737028	37.08046172484057	70.06649323116591	0	0	42.28773642182284	-3.288045397661419	17.54067115593783	35.35922745918197	91.23613061435823	0	0
